<svg xmlns="http://www.w3.org/2000/svg" viewBox="0 0 12 12">
  <defs>
    <linearGradient id="grad" x1="0" x2="1" y1="1" y2="0">
      <stop offset="0%" stop-color="#ACB6E5"/>
      <stop offset="100%" stop-color="#74ebd5"/>
    </linearGradient>
  </defs>
  <path d="M 0 0 L 2 0 L 4 4 L 2 4 L 0 0 Z M 7.5 0 L 5 0 L 5 5 L 0 5 L 0 7 L 5 7 L 5 12 L 7 12 L 7 7 L 12 7 L 12 5 L 7 5 L 7 1 Z M 10 8 L 12 12 L 10 12 L 8 8 L 8 8 Z M 10 0 L 10 0 L 8 4 L 10 4 L 12 0 Z M 2 8 L 2 8 L 4 8 L 2 12 L 0 12 Z" fill="url(#grad)"/>
</svg>